<svg width="381" height="477" viewBox="0 0 381 477" fill="none" xmlns="http://www.w3.org/2000/svg">
<path  d="M369.903 1.1967C361.166 1.24454 352.427 1.30543 343.688 1.36632C324.798 1.49793 305.904 1.62957 287.013 1.62957H287.012L287.01 1.62957C225.623 1.55555 164.231 1.48152 102.838 1.00035C99.5498 0.982665 97.5136 1.63633 96.0951 3.05345C94.6315 4.5156 93.6496 6.95645 92.9087 10.9531L92.9085 10.954C89.4379 29.5776 85.6155 48.0984 81.7918 66.6259C80.1422 74.6192 78.4923 82.6137 76.8702 90.6184C51.6204 215.607 26.4005 340.559 1.21055 465.548L1.21021 465.55C0.662745 468.242 1.22216 470.885 2.45223 472.835C3.68308 474.786 5.52715 475.972 7.55989 475.972H8.15823H8.60821H9.05819H9.50817H9.95815H10.4081H10.8581H11.3081H11.7581H12.2081H12.6581H13.108H13.558H14.008H14.458H14.908H15.358H15.808H16.258H16.708H17.158H17.608H18.0579H18.5079H18.9579H19.4079H19.8579H20.3079H20.7579H21.2079H21.6579H22.1079H22.5579H23.0079H23.4579H23.9079H24.3579H24.8079H25.2579H25.7079H26.1579H26.608H27.058H27.508H27.958H28.408H28.858H29.308H29.758H30.208H30.658H31.108H31.5581H32.0081H32.4581H32.9081H33.3581H33.8081H34.2581H34.7081H35.1582H35.6082H36.0582H36.5082H36.9582H37.4082H37.8583H38.3083H38.7583H39.2083H39.6584H40.1084H40.5584H41.0084H41.4584H41.9085H42.3585H42.8085H43.2585H43.7086H44.1586H44.6086H45.0586H45.5087H45.9587H46.4087H46.8588H47.3088H47.7588H48.2088H48.6589H49.1089H49.5589H50.009H50.459H50.909H51.3591H51.8091H52.2591H52.7092H53.1592H53.6092H54.0593H54.5093H54.9593H55.4094H55.8594H56.3095H56.7595H57.2095H57.6596H58.1096H58.5597H59.0097H59.4597H59.9098H60.3598H60.8099H61.2599H61.7099H62.16H62.61H63.0601H63.5101H63.9602H64.4102H64.8603H65.3103H65.7603H66.2104H66.6604H67.1105H67.5605H68.0106H68.4606H68.9107H69.3607H69.8108H70.2608H70.7109H71.1609H71.611H72.061H72.5111H72.9611H73.4112H73.8612H74.3113H74.7613H75.2114H75.6614H76.1115H76.5615H77.0116H77.4616H77.9117H78.3617H78.8118H79.2619H79.7119H80.162H80.612H81.0621H81.5121H81.9622H82.4122H82.8623H83.3124H83.7624H84.2125H84.6625H85.1126H85.5626H86.0127H86.4628H86.9128H87.3629H87.8129H88.263H88.7131H89.1631H89.6132H90.0632H90.5133H90.9634H91.4134H91.8635H92.3135H92.7636H93.2137H93.6637H94.1138H94.5639H95.0139H95.464H95.914H96.3641H96.8142H97.2642H97.7143H98.1644H98.6144H99.0645H99.5145H99.9646H100.415H100.865H101.315H101.765H102.215H102.665H103.115H103.565H104.015H104.465H104.915H105.365H105.815H106.266H106.716H107.166H107.616H108.066H108.516H108.966H109.416H109.866H110.316H110.766H111.216H111.666H112.116H112.566H113.017H113.467H113.917H114.367H114.817H115.267H115.717H116.167H116.617H117.067H117.517H117.967H118.417H118.867H119.317H119.768H120.218H120.668H121.118H121.568H122.018H122.468H122.918H123.368H123.818H124.268H124.718H125.168H125.618H126.068H126.519H126.969H127.419H127.869H128.319H128.769H129.219H129.669H130.119H130.569H131.019H131.469H131.919H132.369H132.819H133.27H133.72H134.17H134.62H135.07H135.52H135.97H136.42H136.87H137.32H137.77H138.22H138.67H139.12H139.57H140.021H140.471H140.921H141.371H141.821H142.271H142.721H143.171H143.621H144.071H144.521H144.971H145.421H145.871H146.321H146.772H147.222H147.672H148.122H148.572H149.022H149.472H149.922H150.372H150.822H151.272H151.722H152.172H152.622H153.072H153.522H153.973H154.423H154.873H155.323H155.773H156.223H156.673H157.123H157.573H158.023H158.473H158.923H159.373H159.823H160.273H160.723H161.173H161.624H162.074H162.524H162.974H163.424H163.874H164.324H164.774H165.224H165.674H166.124H166.574H167.024H167.474H167.924H168.374H168.824H169.274H169.725H170.175H170.625H171.075H171.525H171.975H172.425H172.875H173.325H173.775H174.225H174.675H175.125H175.575H176.025H176.475H176.925H177.375H177.825H178.275H178.726H179.176H179.626H180.076H180.526H180.976H181.426H181.876H182.326H182.776H183.226H183.676H184.126H184.576H185.026H185.476H185.926H186.376H186.826H187.276H187.726H188.176H188.627H189.077H189.527H189.977H190.427H190.877H191.327H191.777H192.227H192.677H193.127H193.577H194.027H194.477H194.927H195.377H195.827H196.277H196.727H197.177H197.627H198.077H198.527H198.977H199.427H199.877H200.327H200.777H201.227H201.677H202.128H202.578H203.028H203.478H203.928H204.378H204.828H205.278H205.728H206.178H206.628H207.078H207.528H207.978H208.428H208.878H209.328H209.778H210.228H210.678H211.128H211.578H212.028H212.478H212.928H213.378H213.828H214.278H214.728H215.178H215.628H216.078H216.528H216.978H217.428H217.878H218.328H218.778H219.228H219.678H220.128H220.578H221.028H221.478H221.928H222.378H222.828H223.278H223.728H224.178H224.628H225.078H225.528H225.978H226.428H226.878H227.328H227.778H228.228H228.678H229.128H229.578H230.028H230.478H230.928H231.378H231.828H232.278H232.728H233.178H233.628H234.078H234.528H234.978H235.428H235.878H236.328H236.778H237.228H237.678H238.128H238.578C241.942 475.972 245.302 475.979 248.661 475.986C258.723 476.007 268.766 476.028 278.829 475.861M369.903 1.1967L278.829 475.861M369.903 1.1967L369.882 1.22244H371.977L372.456 1.22247L372.463 1.22241C374.51 1.20707 376.358 2.38464 377.595 4.33431C378.831 6.28387 379.399 8.93698 378.864 11.6509C377.412 18.9101 375.988 26.0394 374.582 33.0823C371.671 47.657 368.835 61.862 365.971 76.0842C352.544 142.685 339.087 209.304 325.633 275.916C319.871 304.44 314.11 332.963 308.351 361.482L308.351 361.483C307.488 365.761 306.626 370.04 305.765 374.319C300.378 401.056 294.993 427.786 289.474 454.489C288.103 461.129 286.47 467.732 284.193 473.842M369.903 1.1967L284.193 473.842M278.829 475.861C279.817 475.845 281.112 475.632 282.216 475.228C282.767 475.027 283.235 474.791 283.586 474.534C283.941 474.275 284.12 474.035 284.193 473.842M278.829 475.861L284.193 473.842" stroke="#00C7CD" stroke-width="2"/>
</svg>

